<mxfile host="app.diagrams.net" modified="2023-05-09T23:20:29.201Z" agent="Mozilla/5.0 (Windows NT 10.0; Win64; x64) AppleWebKit/537.36 (KHTML, like Gecko) Chrome/113.0.0.0 Safari/537.36" etag="YpmfhH3Z8fzDrIZeiBdj" version="21.1.8" type="device">
  <diagram id="FrJY5ePhACFEH0E0yAww" name="Страница 1">
    <mxGraphModel dx="1687" dy="889" grid="0" gridSize="10" guides="1" tooltips="1" connect="1" arrows="1" fold="1" page="0" pageScale="1" pageWidth="827" pageHeight="1169" math="0" shadow="0">
      <root>
        <mxCell id="0" />
        <mxCell id="1" parent="0" />
        <mxCell id="nTTlJRHmubviOf54LsZv-21" style="edgeStyle=orthogonalEdgeStyle;rounded=0;orthogonalLoop=1;jettySize=auto;html=1;entryX=0;entryY=0.5;entryDx=0;entryDy=0;" edge="1" parent="1" source="-BYBEjxCW-A5tZAeEb4K-25" target="nTTlJRHmubviOf54LsZv-18">
          <mxGeometry relative="1" as="geometry" />
        </mxCell>
        <mxCell id="-BYBEjxCW-A5tZAeEb4K-25" value="" style="shape=umlActor;verticalLabelPosition=bottom;verticalAlign=top;html=1;" parent="1" vertex="1">
          <mxGeometry x="30" y="220" width="31" height="50" as="geometry" />
        </mxCell>
        <mxCell id="nTTlJRHmubviOf54LsZv-16" style="edgeStyle=orthogonalEdgeStyle;rounded=0;orthogonalLoop=1;jettySize=auto;html=1;exitX=0;exitY=0.5;exitDx=0;exitDy=0;" edge="1" parent="1" source="nTTlJRHmubviOf54LsZv-9" target="-BYBEjxCW-A5tZAeEb4K-25">
          <mxGeometry relative="1" as="geometry" />
        </mxCell>
        <mxCell id="nTTlJRHmubviOf54LsZv-9" value="" style="swimlane;startSize=0;" vertex="1" parent="1">
          <mxGeometry x="180" y="340" width="190" height="360" as="geometry" />
        </mxCell>
        <mxCell id="nTTlJRHmubviOf54LsZv-10" value="Представления" style="text;html=1;align=center;verticalAlign=middle;resizable=0;points=[];autosize=1;strokeColor=none;fillColor=none;" vertex="1" parent="nTTlJRHmubviOf54LsZv-9">
          <mxGeometry x="10" width="110" height="30" as="geometry" />
        </mxCell>
        <mxCell id="nTTlJRHmubviOf54LsZv-5" value="home" style="html=1;whiteSpace=wrap;" vertex="1" parent="nTTlJRHmubviOf54LsZv-9">
          <mxGeometry x="40" y="40" width="110" height="50" as="geometry" />
        </mxCell>
        <mxCell id="nTTlJRHmubviOf54LsZv-6" value="registration" style="html=1;whiteSpace=wrap;" vertex="1" parent="nTTlJRHmubviOf54LsZv-9">
          <mxGeometry x="40" y="110" width="110" height="50" as="geometry" />
        </mxCell>
        <mxCell id="nTTlJRHmubviOf54LsZv-4" value="account" style="html=1;whiteSpace=wrap;" vertex="1" parent="nTTlJRHmubviOf54LsZv-9">
          <mxGeometry x="40" y="195" width="110" height="50" as="geometry" />
        </mxCell>
        <mxCell id="nTTlJRHmubviOf54LsZv-7" value="order" style="html=1;whiteSpace=wrap;" vertex="1" parent="nTTlJRHmubviOf54LsZv-9">
          <mxGeometry x="40" y="290" width="110" height="50" as="geometry" />
        </mxCell>
        <mxCell id="nTTlJRHmubviOf54LsZv-12" style="edgeStyle=orthogonalEdgeStyle;rounded=0;orthogonalLoop=1;jettySize=auto;html=1;exitX=0;exitY=0.5;exitDx=0;exitDy=0;entryX=1;entryY=0.5;entryDx=0;entryDy=0;dashed=1;" edge="1" parent="1" source="nTTlJRHmubviOf54LsZv-11" target="nTTlJRHmubviOf54LsZv-9">
          <mxGeometry relative="1" as="geometry">
            <Array as="points">
              <mxPoint x="410" y="520" />
              <mxPoint x="410" y="520" />
            </Array>
          </mxGeometry>
        </mxCell>
        <mxCell id="nTTlJRHmubviOf54LsZv-11" value="ViewResolver" style="rounded=0;whiteSpace=wrap;html=1;" vertex="1" parent="1">
          <mxGeometry x="480" y="490" width="120" height="60" as="geometry" />
        </mxCell>
        <mxCell id="nTTlJRHmubviOf54LsZv-13" value="Определяет" style="text;html=1;strokeColor=none;fillColor=none;align=center;verticalAlign=middle;whiteSpace=wrap;rounded=0;" vertex="1" parent="1">
          <mxGeometry x="400" y="490" width="60" height="30" as="geometry" />
        </mxCell>
        <mxCell id="nTTlJRHmubviOf54LsZv-32" style="edgeStyle=orthogonalEdgeStyle;rounded=0;orthogonalLoop=1;jettySize=auto;html=1;exitX=1;exitY=0.5;exitDx=0;exitDy=0;entryX=-0.008;entryY=0.588;entryDx=0;entryDy=0;entryPerimeter=0;" edge="1" parent="1" source="nTTlJRHmubviOf54LsZv-18" target="nTTlJRHmubviOf54LsZv-25">
          <mxGeometry relative="1" as="geometry" />
        </mxCell>
        <mxCell id="nTTlJRHmubviOf54LsZv-18" value="DispatcherServlet" style="rounded=0;whiteSpace=wrap;html=1;" vertex="1" parent="1">
          <mxGeometry x="210" y="180" width="120" height="60" as="geometry" />
        </mxCell>
        <mxCell id="nTTlJRHmubviOf54LsZv-22" value="Обращается" style="text;html=1;strokeColor=none;fillColor=none;align=center;verticalAlign=middle;whiteSpace=wrap;rounded=0;" vertex="1" parent="1">
          <mxGeometry x="140" y="180" width="60" height="30" as="geometry" />
        </mxCell>
        <mxCell id="nTTlJRHmubviOf54LsZv-110" style="edgeStyle=orthogonalEdgeStyle;rounded=0;orthogonalLoop=1;jettySize=auto;html=1;exitX=0.5;exitY=1;exitDx=0;exitDy=0;entryX=0.5;entryY=0;entryDx=0;entryDy=0;dashed=1;" edge="1" parent="1" source="nTTlJRHmubviOf54LsZv-25" target="nTTlJRHmubviOf54LsZv-11">
          <mxGeometry relative="1" as="geometry" />
        </mxCell>
        <mxCell id="nTTlJRHmubviOf54LsZv-162" style="edgeStyle=orthogonalEdgeStyle;rounded=0;orthogonalLoop=1;jettySize=auto;html=1;exitX=1;exitY=0.5;exitDx=0;exitDy=0;entryX=0;entryY=0.5;entryDx=0;entryDy=0;" edge="1" parent="1" source="nTTlJRHmubviOf54LsZv-25" target="nTTlJRHmubviOf54LsZv-34">
          <mxGeometry relative="1" as="geometry" />
        </mxCell>
        <mxCell id="nTTlJRHmubviOf54LsZv-25" value="" style="swimlane;startSize=0;" vertex="1" parent="1">
          <mxGeometry x="440" y="10" width="200" height="340" as="geometry" />
        </mxCell>
        <mxCell id="nTTlJRHmubviOf54LsZv-27" value="Контроллеры" style="text;html=1;align=center;verticalAlign=middle;resizable=0;points=[];autosize=1;strokeColor=none;fillColor=none;" vertex="1" parent="nTTlJRHmubviOf54LsZv-25">
          <mxGeometry x="10" width="100" height="30" as="geometry" />
        </mxCell>
        <mxCell id="nTTlJRHmubviOf54LsZv-28" value="MainPageController" style="html=1;whiteSpace=wrap;" vertex="1" parent="nTTlJRHmubviOf54LsZv-25">
          <mxGeometry x="37.5" y="35" width="125" height="50" as="geometry" />
        </mxCell>
        <mxCell id="nTTlJRHmubviOf54LsZv-29" value="RegistrationController" style="html=1;whiteSpace=wrap;" vertex="1" parent="nTTlJRHmubviOf54LsZv-25">
          <mxGeometry x="37.5" y="105" width="125" height="50" as="geometry" />
        </mxCell>
        <mxCell id="nTTlJRHmubviOf54LsZv-30" value="UserAccountController" style="html=1;whiteSpace=wrap;" vertex="1" parent="nTTlJRHmubviOf54LsZv-25">
          <mxGeometry x="37.5" y="180" width="125" height="50" as="geometry" />
        </mxCell>
        <mxCell id="nTTlJRHmubviOf54LsZv-31" value="OrderController" style="html=1;whiteSpace=wrap;" vertex="1" parent="nTTlJRHmubviOf54LsZv-25">
          <mxGeometry x="37.5" y="260" width="125" height="50" as="geometry" />
        </mxCell>
        <mxCell id="nTTlJRHmubviOf54LsZv-33" value="Перенаправляет" style="text;html=1;strokeColor=none;fillColor=none;align=center;verticalAlign=middle;whiteSpace=wrap;rounded=0;" vertex="1" parent="1">
          <mxGeometry x="354" y="180" width="60" height="30" as="geometry" />
        </mxCell>
        <mxCell id="nTTlJRHmubviOf54LsZv-164" style="edgeStyle=orthogonalEdgeStyle;rounded=0;orthogonalLoop=1;jettySize=auto;html=1;exitX=1;exitY=0.5;exitDx=0;exitDy=0;entryX=0;entryY=0.5;entryDx=0;entryDy=0;" edge="1" parent="1" source="nTTlJRHmubviOf54LsZv-34" target="nTTlJRHmubviOf54LsZv-99">
          <mxGeometry relative="1" as="geometry" />
        </mxCell>
        <mxCell id="nTTlJRHmubviOf54LsZv-170" style="edgeStyle=orthogonalEdgeStyle;rounded=0;orthogonalLoop=1;jettySize=auto;html=1;exitX=1;exitY=0.5;exitDx=0;exitDy=0;entryX=0;entryY=0.5;entryDx=0;entryDy=0;" edge="1" parent="1" source="nTTlJRHmubviOf54LsZv-34" target="nTTlJRHmubviOf54LsZv-145">
          <mxGeometry relative="1" as="geometry">
            <Array as="points">
              <mxPoint x="1120" y="345" />
              <mxPoint x="1120" y="690" />
              <mxPoint x="1380" y="690" />
              <mxPoint x="1380" y="810" />
            </Array>
          </mxGeometry>
        </mxCell>
        <mxCell id="nTTlJRHmubviOf54LsZv-174" style="edgeStyle=orthogonalEdgeStyle;rounded=0;orthogonalLoop=1;jettySize=auto;html=1;exitX=0.5;exitY=1;exitDx=0;exitDy=0;entryX=0.5;entryY=0;entryDx=0;entryDy=0;" edge="1" parent="1" source="nTTlJRHmubviOf54LsZv-34" target="nTTlJRHmubviOf54LsZv-55">
          <mxGeometry relative="1" as="geometry" />
        </mxCell>
        <mxCell id="nTTlJRHmubviOf54LsZv-34" value="" style="swimlane;startSize=0;" vertex="1" parent="1">
          <mxGeometry x="810" y="20" width="270" height="650" as="geometry" />
        </mxCell>
        <mxCell id="nTTlJRHmubviOf54LsZv-37" value="Сервисы" style="text;html=1;strokeColor=none;fillColor=none;align=center;verticalAlign=middle;whiteSpace=wrap;rounded=0;" vertex="1" parent="nTTlJRHmubviOf54LsZv-34">
          <mxGeometry x="20" width="60" height="30" as="geometry" />
        </mxCell>
        <mxCell id="nTTlJRHmubviOf54LsZv-39" value="«interface»&lt;br&gt;&lt;b&gt;OrderService&lt;/b&gt;" style="html=1;whiteSpace=wrap;" vertex="1" parent="nTTlJRHmubviOf54LsZv-34">
          <mxGeometry x="80" y="45" width="110" height="50" as="geometry" />
        </mxCell>
        <mxCell id="nTTlJRHmubviOf54LsZv-40" value="«interface»&lt;br&gt;&lt;b&gt;ProductService&lt;/b&gt;" style="html=1;whiteSpace=wrap;" vertex="1" parent="nTTlJRHmubviOf54LsZv-34">
          <mxGeometry x="80" y="140" width="110" height="50" as="geometry" />
        </mxCell>
        <mxCell id="nTTlJRHmubviOf54LsZv-43" value="«interface»&lt;br&gt;&lt;b&gt;UserService&lt;/b&gt;" style="html=1;whiteSpace=wrap;" vertex="1" parent="nTTlJRHmubviOf54LsZv-34">
          <mxGeometry x="80" y="260" width="110" height="50" as="geometry" />
        </mxCell>
        <mxCell id="nTTlJRHmubviOf54LsZv-44" value="«interface»&lt;br&gt;&lt;b&gt;AccountValidationService&lt;/b&gt;" style="html=1;whiteSpace=wrap;" vertex="1" parent="nTTlJRHmubviOf54LsZv-34">
          <mxGeometry x="50" y="450" width="170" height="50" as="geometry" />
        </mxCell>
        <mxCell id="nTTlJRHmubviOf54LsZv-45" value="«interface»&lt;br&gt;&lt;b&gt;OrderService&lt;/b&gt;" style="html=1;whiteSpace=wrap;" vertex="1" parent="nTTlJRHmubviOf54LsZv-34">
          <mxGeometry x="80" y="360" width="110" height="50" as="geometry" />
        </mxCell>
        <mxCell id="nTTlJRHmubviOf54LsZv-46" value="«interface»&lt;br&gt;&lt;b&gt;OrderValidationService&lt;/b&gt;" style="html=1;whiteSpace=wrap;" vertex="1" parent="nTTlJRHmubviOf54LsZv-34">
          <mxGeometry x="50" y="560" width="170" height="50" as="geometry" />
        </mxCell>
        <mxCell id="nTTlJRHmubviOf54LsZv-90" value="" style="swimlane;startSize=0;" vertex="1" parent="1">
          <mxGeometry x="1505" y="20" width="270" height="650" as="geometry" />
        </mxCell>
        <mxCell id="nTTlJRHmubviOf54LsZv-91" value="Сущности" style="text;html=1;strokeColor=none;fillColor=none;align=center;verticalAlign=middle;whiteSpace=wrap;rounded=0;" vertex="1" parent="nTTlJRHmubviOf54LsZv-90">
          <mxGeometry x="30" width="60" height="30" as="geometry" />
        </mxCell>
        <mxCell id="nTTlJRHmubviOf54LsZv-92" value="AddDescrEntity" style="html=1;whiteSpace=wrap;" vertex="1" parent="nTTlJRHmubviOf54LsZv-90">
          <mxGeometry x="80" y="45" width="110" height="50" as="geometry" />
        </mxCell>
        <mxCell id="nTTlJRHmubviOf54LsZv-93" value="CakePartEntity" style="html=1;whiteSpace=wrap;" vertex="1" parent="nTTlJRHmubviOf54LsZv-90">
          <mxGeometry x="80" y="140" width="110" height="50" as="geometry" />
        </mxCell>
        <mxCell id="nTTlJRHmubviOf54LsZv-94" value="CakeEntity" style="html=1;whiteSpace=wrap;" vertex="1" parent="nTTlJRHmubviOf54LsZv-90">
          <mxGeometry x="80" y="220" width="110" height="50" as="geometry" />
        </mxCell>
        <mxCell id="nTTlJRHmubviOf54LsZv-95" value="ProductEntity" style="html=1;whiteSpace=wrap;" vertex="1" parent="nTTlJRHmubviOf54LsZv-90">
          <mxGeometry x="86" y="400" width="98" height="50" as="geometry" />
        </mxCell>
        <mxCell id="nTTlJRHmubviOf54LsZv-96" value="OrderEntity" style="html=1;whiteSpace=wrap;" vertex="1" parent="nTTlJRHmubviOf54LsZv-90">
          <mxGeometry x="80" y="310" width="110" height="50" as="geometry" />
        </mxCell>
        <mxCell id="nTTlJRHmubviOf54LsZv-97" value="BonusEntity" style="html=1;whiteSpace=wrap;" vertex="1" parent="nTTlJRHmubviOf54LsZv-90">
          <mxGeometry x="90" y="490" width="100" height="50" as="geometry" />
        </mxCell>
        <mxCell id="nTTlJRHmubviOf54LsZv-98" value="UserEntity" style="html=1;whiteSpace=wrap;" vertex="1" parent="nTTlJRHmubviOf54LsZv-90">
          <mxGeometry x="90" y="575" width="100" height="50" as="geometry" />
        </mxCell>
        <mxCell id="nTTlJRHmubviOf54LsZv-166" style="edgeStyle=orthogonalEdgeStyle;rounded=0;orthogonalLoop=1;jettySize=auto;html=1;exitX=1;exitY=0.5;exitDx=0;exitDy=0;entryX=0;entryY=0.5;entryDx=0;entryDy=0;" edge="1" parent="1" source="nTTlJRHmubviOf54LsZv-99" target="nTTlJRHmubviOf54LsZv-90">
          <mxGeometry relative="1" as="geometry" />
        </mxCell>
        <mxCell id="nTTlJRHmubviOf54LsZv-178" style="edgeStyle=orthogonalEdgeStyle;rounded=0;orthogonalLoop=1;jettySize=auto;html=1;exitX=0.5;exitY=1;exitDx=0;exitDy=0;entryX=0.5;entryY=0;entryDx=0;entryDy=0;jumpStyle=arc;" edge="1" parent="1" source="nTTlJRHmubviOf54LsZv-99" target="nTTlJRHmubviOf54LsZv-136">
          <mxGeometry relative="1" as="geometry" />
        </mxCell>
        <mxCell id="nTTlJRHmubviOf54LsZv-99" value="" style="swimlane;startSize=0;" vertex="1" parent="1">
          <mxGeometry x="1160" y="20" width="270" height="650" as="geometry" />
        </mxCell>
        <mxCell id="nTTlJRHmubviOf54LsZv-100" value="Dao" style="text;html=1;strokeColor=none;fillColor=none;align=center;verticalAlign=middle;whiteSpace=wrap;rounded=0;" vertex="1" parent="nTTlJRHmubviOf54LsZv-99">
          <mxGeometry x="20" width="60" height="30" as="geometry" />
        </mxCell>
        <mxCell id="nTTlJRHmubviOf54LsZv-101" value="«interface»&lt;br&gt;&lt;b&gt;OrderService&lt;/b&gt;" style="html=1;whiteSpace=wrap;" vertex="1" parent="nTTlJRHmubviOf54LsZv-99">
          <mxGeometry x="80" y="45" width="110" height="50" as="geometry" />
        </mxCell>
        <mxCell id="nTTlJRHmubviOf54LsZv-102" value="«interface»&lt;br&gt;&lt;b&gt;ProductService&lt;/b&gt;" style="html=1;whiteSpace=wrap;" vertex="1" parent="nTTlJRHmubviOf54LsZv-99">
          <mxGeometry x="80" y="140" width="110" height="50" as="geometry" />
        </mxCell>
        <mxCell id="nTTlJRHmubviOf54LsZv-103" value="«interface»&lt;br&gt;&lt;b&gt;UserService&lt;/b&gt;" style="html=1;whiteSpace=wrap;" vertex="1" parent="nTTlJRHmubviOf54LsZv-99">
          <mxGeometry x="80" y="260" width="110" height="50" as="geometry" />
        </mxCell>
        <mxCell id="nTTlJRHmubviOf54LsZv-104" value="«interface»&lt;br&gt;&lt;b&gt;AccountValidationService&lt;/b&gt;" style="html=1;whiteSpace=wrap;" vertex="1" parent="nTTlJRHmubviOf54LsZv-99">
          <mxGeometry x="50" y="450" width="170" height="50" as="geometry" />
        </mxCell>
        <mxCell id="nTTlJRHmubviOf54LsZv-105" value="«interface»&lt;br&gt;&lt;b&gt;OrderService&lt;/b&gt;" style="html=1;whiteSpace=wrap;" vertex="1" parent="nTTlJRHmubviOf54LsZv-99">
          <mxGeometry x="80" y="360" width="110" height="50" as="geometry" />
        </mxCell>
        <mxCell id="nTTlJRHmubviOf54LsZv-106" value="«interface»&lt;br&gt;&lt;b&gt;OrderValidationService&lt;/b&gt;" style="html=1;whiteSpace=wrap;" vertex="1" parent="nTTlJRHmubviOf54LsZv-99">
          <mxGeometry x="50" y="560" width="170" height="50" as="geometry" />
        </mxCell>
        <mxCell id="nTTlJRHmubviOf54LsZv-55" value="" style="swimlane;startSize=0;" vertex="1" parent="1">
          <mxGeometry x="850" y="750" width="190" height="550" as="geometry" />
        </mxCell>
        <mxCell id="nTTlJRHmubviOf54LsZv-56" value="DTO" style="text;html=1;strokeColor=none;fillColor=none;align=center;verticalAlign=middle;whiteSpace=wrap;rounded=0;" vertex="1" parent="nTTlJRHmubviOf54LsZv-55">
          <mxGeometry x="30" width="60" height="30" as="geometry" />
        </mxCell>
        <mxCell id="nTTlJRHmubviOf54LsZv-57" value="«interface»&lt;br&gt;&lt;b&gt;UserDto&lt;/b&gt;" style="html=1;whiteSpace=wrap;" vertex="1" parent="nTTlJRHmubviOf54LsZv-55">
          <mxGeometry x="45" y="30" width="110" height="50" as="geometry" />
        </mxCell>
        <mxCell id="nTTlJRHmubviOf54LsZv-107" value="«interface»&lt;br&gt;&lt;b&gt;ProductDto&lt;/b&gt;" style="html=1;whiteSpace=wrap;" vertex="1" parent="nTTlJRHmubviOf54LsZv-55">
          <mxGeometry x="45" y="110" width="110" height="50" as="geometry" />
        </mxCell>
        <mxCell id="nTTlJRHmubviOf54LsZv-108" value="«interface»&lt;br&gt;&lt;b&gt;OrderDto&lt;/b&gt;" style="html=1;whiteSpace=wrap;" vertex="1" parent="nTTlJRHmubviOf54LsZv-55">
          <mxGeometry x="40" y="200" width="120" height="50" as="geometry" />
        </mxCell>
        <mxCell id="nTTlJRHmubviOf54LsZv-109" value="«interface»&lt;br&gt;&lt;b&gt;DescriptionDto&lt;/b&gt;" style="html=1;whiteSpace=wrap;" vertex="1" parent="nTTlJRHmubviOf54LsZv-55">
          <mxGeometry x="40" y="280" width="120" height="50" as="geometry" />
        </mxCell>
        <mxCell id="nTTlJRHmubviOf54LsZv-142" value="«interface»&lt;br&gt;&lt;b&gt;CakeDto&lt;/b&gt;" style="html=1;whiteSpace=wrap;" vertex="1" parent="nTTlJRHmubviOf54LsZv-55">
          <mxGeometry x="35" y="350" width="120" height="50" as="geometry" />
        </mxCell>
        <mxCell id="nTTlJRHmubviOf54LsZv-143" value="«interface»&lt;br&gt;&lt;b&gt;CakePartDto&lt;/b&gt;" style="html=1;whiteSpace=wrap;" vertex="1" parent="nTTlJRHmubviOf54LsZv-55">
          <mxGeometry x="35" y="419" width="120" height="50" as="geometry" />
        </mxCell>
        <mxCell id="nTTlJRHmubviOf54LsZv-144" value="«interface»&lt;br&gt;&lt;b&gt;BonusDto&lt;/b&gt;" style="html=1;whiteSpace=wrap;" vertex="1" parent="nTTlJRHmubviOf54LsZv-55">
          <mxGeometry x="35" y="490" width="120" height="50" as="geometry" />
        </mxCell>
        <mxCell id="nTTlJRHmubviOf54LsZv-111" value="Отдают имена" style="text;html=1;strokeColor=none;fillColor=none;align=center;verticalAlign=middle;whiteSpace=wrap;rounded=0;" vertex="1" parent="1">
          <mxGeometry x="540" y="400" width="60" height="30" as="geometry" />
        </mxCell>
        <mxCell id="nTTlJRHmubviOf54LsZv-169" style="edgeStyle=orthogonalEdgeStyle;rounded=0;orthogonalLoop=1;jettySize=auto;html=1;exitX=1;exitY=0.5;exitDx=0;exitDy=0;entryX=0;entryY=0.5;entryDx=0;entryDy=0;" edge="1" parent="1" source="nTTlJRHmubviOf54LsZv-136" target="nTTlJRHmubviOf54LsZv-145">
          <mxGeometry relative="1" as="geometry">
            <Array as="points">
              <mxPoint x="1380" y="925" />
              <mxPoint x="1380" y="810" />
            </Array>
          </mxGeometry>
        </mxCell>
        <mxCell id="nTTlJRHmubviOf54LsZv-136" value="" style="swimlane;startSize=0;" vertex="1" parent="1">
          <mxGeometry x="1130" y="750" width="190" height="350" as="geometry" />
        </mxCell>
        <mxCell id="nTTlJRHmubviOf54LsZv-137" value="Репозитории" style="text;html=1;strokeColor=none;fillColor=none;align=center;verticalAlign=middle;whiteSpace=wrap;rounded=0;" vertex="1" parent="nTTlJRHmubviOf54LsZv-136">
          <mxGeometry x="30" width="60" height="30" as="geometry" />
        </mxCell>
        <mxCell id="nTTlJRHmubviOf54LsZv-138" value="«interface»&lt;br&gt;&lt;b&gt;CakeRepository&lt;/b&gt;" style="html=1;whiteSpace=wrap;" vertex="1" parent="nTTlJRHmubviOf54LsZv-136">
          <mxGeometry x="45" y="30" width="110" height="50" as="geometry" />
        </mxCell>
        <mxCell id="nTTlJRHmubviOf54LsZv-139" value="«interface»&lt;br&gt;&lt;b&gt;OrderRepository&lt;/b&gt;" style="html=1;whiteSpace=wrap;" vertex="1" parent="nTTlJRHmubviOf54LsZv-136">
          <mxGeometry x="45" y="110" width="110" height="50" as="geometry" />
        </mxCell>
        <mxCell id="nTTlJRHmubviOf54LsZv-140" value="«interface»&lt;br&gt;&lt;b&gt;ProductRepository&lt;/b&gt;" style="html=1;whiteSpace=wrap;" vertex="1" parent="nTTlJRHmubviOf54LsZv-136">
          <mxGeometry x="40" y="200" width="120" height="50" as="geometry" />
        </mxCell>
        <mxCell id="nTTlJRHmubviOf54LsZv-141" value="«interface»&lt;br&gt;&lt;b&gt;UserRepository&lt;/b&gt;" style="html=1;whiteSpace=wrap;" vertex="1" parent="nTTlJRHmubviOf54LsZv-136">
          <mxGeometry x="40" y="280" width="120" height="50" as="geometry" />
        </mxCell>
        <mxCell id="nTTlJRHmubviOf54LsZv-145" value="" style="swimlane;startSize=0;" vertex="1" parent="1">
          <mxGeometry x="1480" y="710" width="390" height="200" as="geometry" />
        </mxCell>
        <mxCell id="nTTlJRHmubviOf54LsZv-148" value="BaseException" style="html=1;whiteSpace=wrap;" vertex="1" parent="nTTlJRHmubviOf54LsZv-145">
          <mxGeometry x="140" y="20" width="100" height="50" as="geometry" />
        </mxCell>
        <mxCell id="nTTlJRHmubviOf54LsZv-154" style="edgeStyle=orthogonalEdgeStyle;rounded=0;orthogonalLoop=1;jettySize=auto;html=1;exitX=0.5;exitY=0;exitDx=0;exitDy=0;entryX=0.5;entryY=1;entryDx=0;entryDy=0;endArrow=block;endFill=0;" edge="1" parent="nTTlJRHmubviOf54LsZv-145" source="nTTlJRHmubviOf54LsZv-149" target="nTTlJRHmubviOf54LsZv-148">
          <mxGeometry relative="1" as="geometry" />
        </mxCell>
        <mxCell id="nTTlJRHmubviOf54LsZv-149" value="DataBaseException" style="rounded=0;whiteSpace=wrap;html=1;" vertex="1" parent="nTTlJRHmubviOf54LsZv-145">
          <mxGeometry x="40" y="122" width="120" height="60" as="geometry" />
        </mxCell>
        <mxCell id="nTTlJRHmubviOf54LsZv-151" style="edgeStyle=orthogonalEdgeStyle;rounded=0;orthogonalLoop=1;jettySize=auto;html=1;entryX=0.5;entryY=1;entryDx=0;entryDy=0;endArrow=block;endFill=0;" edge="1" parent="nTTlJRHmubviOf54LsZv-145" source="nTTlJRHmubviOf54LsZv-150" target="nTTlJRHmubviOf54LsZv-148">
          <mxGeometry relative="1" as="geometry" />
        </mxCell>
        <mxCell id="nTTlJRHmubviOf54LsZv-150" value="UnavalibleTechnical&lt;br&gt;Exception" style="rounded=0;whiteSpace=wrap;html=1;" vertex="1" parent="nTTlJRHmubviOf54LsZv-145">
          <mxGeometry x="220" y="122" width="120" height="60" as="geometry" />
        </mxCell>
        <mxCell id="nTTlJRHmubviOf54LsZv-146" value="Ошибки" style="text;html=1;align=center;verticalAlign=middle;resizable=0;points=[];autosize=1;strokeColor=none;fillColor=none;" vertex="1" parent="1">
          <mxGeometry x="1495" y="708" width="70" height="30" as="geometry" />
        </mxCell>
        <mxCell id="nTTlJRHmubviOf54LsZv-156" style="edgeStyle=orthogonalEdgeStyle;rounded=0;orthogonalLoop=1;jettySize=auto;html=1;exitX=0.5;exitY=0;exitDx=0;exitDy=0;entryX=0.5;entryY=1;entryDx=0;entryDy=0;" edge="1" parent="1" source="nTTlJRHmubviOf54LsZv-155" target="nTTlJRHmubviOf54LsZv-145">
          <mxGeometry relative="1" as="geometry" />
        </mxCell>
        <mxCell id="nTTlJRHmubviOf54LsZv-155" value="ExceptionHandler" style="rounded=0;whiteSpace=wrap;html=1;" vertex="1" parent="1">
          <mxGeometry x="1615" y="970" width="120" height="60" as="geometry" />
        </mxCell>
        <mxCell id="nTTlJRHmubviOf54LsZv-157" value="Обрабатывает" style="text;html=1;strokeColor=none;fillColor=none;align=center;verticalAlign=middle;whiteSpace=wrap;rounded=0;" vertex="1" parent="1">
          <mxGeometry x="1680" y="930" width="100" height="30" as="geometry" />
        </mxCell>
        <mxCell id="nTTlJRHmubviOf54LsZv-160" style="edgeStyle=orthogonalEdgeStyle;rounded=0;orthogonalLoop=1;jettySize=auto;html=1;exitX=0.5;exitY=0;exitDx=0;exitDy=0;entryX=0.25;entryY=1;entryDx=0;entryDy=0;" edge="1" parent="1" source="nTTlJRHmubviOf54LsZv-159" target="nTTlJRHmubviOf54LsZv-145">
          <mxGeometry relative="1" as="geometry" />
        </mxCell>
        <mxCell id="nTTlJRHmubviOf54LsZv-159" value="«interface»&lt;br&gt;&lt;b&gt;Logger&lt;/b&gt;" style="html=1;whiteSpace=wrap;" vertex="1" parent="1">
          <mxGeometry x="1470" y="975" width="110" height="50" as="geometry" />
        </mxCell>
        <mxCell id="nTTlJRHmubviOf54LsZv-161" value="Логирует" style="text;html=1;strokeColor=none;fillColor=none;align=center;verticalAlign=middle;whiteSpace=wrap;rounded=0;" vertex="1" parent="1">
          <mxGeometry x="1505" y="910" width="60" height="30" as="geometry" />
        </mxCell>
        <mxCell id="nTTlJRHmubviOf54LsZv-163" value="Используют" style="text;html=1;align=center;verticalAlign=middle;resizable=0;points=[];autosize=1;strokeColor=none;fillColor=none;" vertex="1" parent="1">
          <mxGeometry x="720" y="310" width="90" height="30" as="geometry" />
        </mxCell>
        <mxCell id="nTTlJRHmubviOf54LsZv-165" value="Используют" style="text;html=1;align=center;verticalAlign=middle;resizable=0;points=[];autosize=1;strokeColor=none;fillColor=none;" vertex="1" parent="1">
          <mxGeometry x="1080" y="300" width="90" height="30" as="geometry" />
        </mxCell>
        <mxCell id="nTTlJRHmubviOf54LsZv-168" value="Используют" style="text;html=1;strokeColor=none;fillColor=none;align=center;verticalAlign=middle;whiteSpace=wrap;rounded=0;" vertex="1" parent="1">
          <mxGeometry x="1435" y="320" width="60" height="30" as="geometry" />
        </mxCell>
        <mxCell id="nTTlJRHmubviOf54LsZv-171" value="Отбрасывают" style="text;html=1;strokeColor=none;fillColor=none;align=center;verticalAlign=middle;whiteSpace=wrap;rounded=0;" vertex="1" parent="1">
          <mxGeometry x="1400" y="770" width="60" height="30" as="geometry" />
        </mxCell>
        <mxCell id="nTTlJRHmubviOf54LsZv-175" value="Используют" style="text;html=1;align=center;verticalAlign=middle;resizable=0;points=[];autosize=1;strokeColor=none;fillColor=none;" vertex="1" parent="1">
          <mxGeometry x="860" y="680" width="90" height="30" as="geometry" />
        </mxCell>
        <mxCell id="nTTlJRHmubviOf54LsZv-179" value="Используют" style="text;html=1;align=center;verticalAlign=middle;resizable=0;points=[];autosize=1;strokeColor=none;fillColor=none;" vertex="1" parent="1">
          <mxGeometry x="1220" y="710" width="90" height="30" as="geometry" />
        </mxCell>
      </root>
    </mxGraphModel>
  </diagram>
</mxfile>
